<svg id="Layer_5" enable-background="new 0 0 64 64" height="512" viewBox="0 0 64 64" width="512" xmlns="http://www.w3.org/2000/svg" xmlns:xlink="http://www.w3.org/1999/xlink"><linearGradient id="SVGID_1_" gradientUnits="userSpaceOnUse" x1="32.207" x2="32.207" y1="63" y2=".586"><stop offset="0" stop-color="#9f2fff"/><stop offset="1" stop-color="#0bb1d3"/></linearGradient><path d="m6 21h3.532l4.087 4.905c.58.696 1.432 1.095 2.338 1.095 1.678 0 3.043-1.365 3.043-3.043v-2.957h1c2.757 0 5-2.243 5-5v-10c0-2.757-2.243-5-5-5h-14c-2.757 0-5 2.243-5 5v10c0 2.757 2.243 5 5 5zm-3-15c0-1.654 1.346-3 3-3h14c1.654 0 3 1.346 3 3v10c0 1.654-1.346 3-3 3h-3v4.957c0 .575-.468 1.043-1.043 1.043-.311 0-.603-.137-.802-.376l-4.687-5.624h-4.468c-1.654 0-3-1.346-3-3zm7 11h6v-3h3v-6h-3v-3h-6v3h-3v6h3zm-1-5v-2h3v-3h2v3h3v2h-3v3h-2v-3zm39.586-7 3 3-3.586 3.586-2-2-3.983 3.983-2-2-28.431 28.431 2 2-3 3 2 2-5 5 1.5 1.5-6.793 6.793 1.414 1.414 6.793-6.793 1.5 1.5 5-5 2 2 3-3 2 2 4.258-4.258c-.165.798-.258 1.614-.258 2.445v.399c0 6.617 5.383 12 12 12s12-5.383 12-12v-.399c0-2.569-.803-5.023-2.323-7.097l-7.094-9.673 9.848-9.847-2-2 3.983-3.984-2-2 3.586-3.586 3 3 4.414-4.414-10.414-10.414zm-36.586 48.586-1.586-1.586 3.586-3.586 1.586 1.586zm7-3-5.586-5.586 1.586-1.586 5.586 5.586zm31 .015v.399c0 5.514-4.486 10-10 10s-10-4.486-10-10v-.399c0-2.142.669-4.187 1.936-5.913l8.064-10.997 8.064 10.995c1.267 1.728 1.936 3.773 1.936 5.915zm-8.614-18.402-1.386-1.89-9.013 12.29-6.987 6.987-9.586-9.586 1.586-1.586 4.293 4.293 1.414-1.414-4.293-4.293 1.586-1.586 2.293 2.293 1.414-1.414-2.293-2.293 1.586-1.586 4.293 4.293 1.414-1.414-4.293-4.293 1.586-1.586 2.293 2.293 1.414-1.414-2.293-2.293 1.586-1.586 4.293 4.293 1.414-1.414-4.293-4.293 1.586-1.586 2.293 2.293 1.414-1.414-2.293-2.293 1.586-1.586 4.293 4.293 1.414-1.414-4.293-4.293 1.586-1.586 2.293 2.293 1.414-1.414-2.293-2.293 1.603-1.603 9.586 9.586zm7.631-11.63-5.586-5.586 2.569-2.569 5.586 5.586zm1.983-5.983-1.586-1.586 3.586-3.586 1.586 1.586zm8-2-7.586-7.586 1.586-1.586 7.586 7.586zm-17.287 44.165.573 1.916c-.739.221-1.508.333-2.286.333v-2c.584 0 1.161-.084 1.713-.249zm3.209-2.324 1.64 1.146c-.542.775-1.211 1.444-1.989 1.987l-1.146-1.639c.585-.407 1.088-.91 1.495-1.494zm-.084-7.375-4.645-6.333 1.613-1.184 4.645 6.334c1.013 1.383 1.549 3.019 1.549 4.732v.399c0 .778-.112 1.548-.333 2.286l-1.916-.572c.165-.554.249-1.13.249-1.714v-.399c0-1.286-.402-2.512-1.162-3.549z" fill="url(#SVGID_1_)"/></svg>