<svg id="Layer_5" enable-background="new 0 0 64 64" height="512" viewBox="0 0 64 64" width="512" xmlns="http://www.w3.org/2000/svg" xmlns:xlink="http://www.w3.org/1999/xlink"><linearGradient id="SVGID_1_" gradientUnits="userSpaceOnUse" x1="32" x2="32" y1="63" y2="1"><stop offset="0" stop-color="#9f2fff"/><stop offset="1" stop-color="#0bb1d3"/></linearGradient><path d="m54.293 14.293 2.293-2.293-2.293-2.293 1.414-1.414 3.707 3.707-3.707 3.707zm-4.586 0-2.293-2.293 2.293-2.293-1.414-1.414-3.707 3.707 3.707 3.707zm4.288-7.193-1.99-.2-1 10 1.99.199zm-16.995 36.9c0-1.654 1.346-3 3-3s3 1.346 3 3-1.346 3-3 3-3-1.346-3-3zm2 0c0 .551.449 1 1 1s1-.449 1-1-.449-1-1-1-1 .449-1 1zm-28-21h-6v-6h6zm-2-4h-2v2h2zm10 4h-6v-6h6zm-2-4h-2v2h2zm10 4h-6v-6h6zm-2-4h-2v2h2zm8 0h2v-2h-2zm0 4h2v-2h-2zm4 0h8v-2h-8zm-14 20h-18v-14h18zm-2-12h-14v10h14zm-14 14h-2v2h2zm2 2h22v-2h-22zm-4 4h26v-2h-26zm4 2v2h2v-2zm-2 0h-2v2h2zm6 2h18v-2h-18zm16 4h2v-2h-2zm-24 0h22v-2h-22zm44-36.426v14.426h11c1.654 0 3 1.346 3 3v16c0 1.654-1.346 3-3 3h-11v1c0 1.654-1.346 3-3 3h-42c-1.654 0-3-1.346-3-3v-44c0-1.654 1.346-3 3-3h37.051c-.03-.33-.051-.662-.051-1 0-6.065 4.935-11 11-11s11 4.935 11 11-4.935 11-11 11c-1.041 0-2.045-.155-3-.426zm-6-10.574c0 4.962 4.038 9 9 9s9-4.038 9-9-4.038-9-9-9-9 4.038-9 9zm-40 4v9h26v-10h-25c-.551 0-1 .449-1 1zm40 15h-14v10h4v-1c0-1.654 1.346-3 3-3h7zm3.574 24.099-2.174-2.899c-.564-.751-1.461-1.2-2.4-1.2s-1.837.449-2.4 1.2l-3.6 4.8h9.434zm13.426 1.901c.074 0 .139-.027.208-.042l-4.037-6.728c-.455-.759-1.287-1.23-2.171-1.23s-1.716.471-2.171 1.229l-4.063 6.771zm0-18h-24c-.551 0-1 .449-1 1v15l3-4c.939-1.252 2.435-2 4-2s3.061.748 4 2l1.685 2.247 2.428-4.047c.815-1.357 2.304-2.2 3.887-2.2s3.072.843 3.886 2.201l3.114 5.189v-14.39c0-.551-.449-1-1-1zm-13-2v-10h-44v33c0 .551.449 1 1 1h42c.551 0 1-.449 1-1v-1h-11c-1.654 0-3-1.346-3-3v-13h-6v-14h18v8zm0-15.214c-1.34-.688-2.526-1.634-3.479-2.786h-6.521v-2h5.214c-.325-.634-.59-1.302-.788-2h-10.426v10h16z" fill="url(#SVGID_1_)"/></svg>